<svg width="256" height="256" viewBox="0 0 256 256" fill="none" xmlns="http://www.w3.org/2000/svg" role="img" aria-labelledby="grimoire-favicon-title">
  <title id="grimoire-favicon-title">Grimoire</title>
  <defs>
    <linearGradient id="grimoire-favicon-bg" x1="42" y1="24" x2="220" y2="232" gradientUnits="userSpaceOnUse">
      <stop offset="0" stop-color="#17463E"/>
      <stop offset="0.56" stop-color="#0E302B"/>
      <stop offset="1" stop-color="#081B18"/>
    </linearGradient>
    <linearGradient id="grimoire-favicon-left" x1="63" y1="70" x2="131" y2="190" gradientUnits="userSpaceOnUse">
      <stop stop-color="#FFF8DF"/>
      <stop offset="1" stop-color="#E8D9AA"/>
    </linearGradient>
    <linearGradient id="grimoire-favicon-right" x1="193" y1="70" x2="125" y2="190" gradientUnits="userSpaceOnUse">
      <stop stop-color="#FFF8DF"/>
      <stop offset="1" stop-color="#E8D9AA"/>
    </linearGradient>
  </defs>

  <rect x="14" y="14" width="228" height="228" rx="54" fill="url(#grimoire-favicon-bg)"/>
  <path d="M64 78C84 65 105 64 128 78V188C105 171 86 170 64 185V78Z" fill="url(#grimoire-favicon-left)"/>
  <path d="M192 78C172 65 151 64 128 78V188C151 171 170 170 192 185V78Z" fill="url(#grimoire-favicon-right)"/>
  <path d="M128 78V188" stroke="#7B6235" stroke-opacity="0.48" stroke-width="3" stroke-linecap="round"/>
  <path d="M78 95C94 89 108 90 120 97" stroke="#7B6235" stroke-opacity="0.42" stroke-width="3" stroke-linecap="round"/>
  <path d="M78 119C94 113 108 114 120 121" stroke="#7B6235" stroke-opacity="0.34" stroke-width="3" stroke-linecap="round"/>
  <path d="M141 99L166 86L181 111L158 134L142 122" stroke="#0E302B" stroke-width="5" stroke-linecap="round" stroke-linejoin="round"/>
  <circle cx="141" cy="99" r="8" fill="#0E302B" stroke="#F6E5A9" stroke-width="4"/>
  <circle cx="166" cy="86" r="7" fill="#CDAA55" stroke="#FFF4CC" stroke-width="3.5"/>
  <circle cx="181" cy="111" r="7" fill="#CDAA55" stroke="#FFF4CC" stroke-width="3.5"/>
  <circle cx="158" cy="134" r="8" fill="#0E302B" stroke="#F6E5A9" stroke-width="4"/>
</svg>
