<svg width="256" height="256" viewBox="0 0 256 256" fill="none" xmlns="http://www.w3.org/2000/svg" role="img" aria-labelledby="grimoire-favicon-title">
  <title id="grimoire-favicon-title">Grimoire</title>
  <defs>
    <linearGradient id="favicon-bg" x1="48" y1="28" x2="216" y2="234" gradientUnits="userSpaceOnUse">
      <stop offset="0" stop-color="#1A4A3D"/>
      <stop offset="0.58" stop-color="#10362C"/>
      <stop offset="1" stop-color="#09231D"/>
    </linearGradient>
    <radialGradient id="favicon-glow" cx="0" cy="0" r="1" gradientUnits="userSpaceOnUse" gradientTransform="translate(92 62) rotate(50) scale(142 122)">
      <stop stop-color="#FFFFFF" stop-opacity="0.18"/>
      <stop offset="0.55" stop-color="#FFFFFF" stop-opacity="0.04"/>
      <stop offset="1" stop-color="#FFFFFF" stop-opacity="0"/>
    </radialGradient>
  </defs>
  <rect x="16" y="16" width="224" height="224" rx="50" fill="url(#favicon-bg)"/>
  <rect x="16" y="16" width="224" height="224" rx="50" fill="url(#favicon-glow)"/>
  <path d="M128 172V70" stroke="#F7F4EA" stroke-width="7.5" stroke-linecap="round"/>
  <path d="M128 100C117 106 110 116 110 130V151" stroke="#F7F4EA" stroke-width="7.5" stroke-linecap="round"/>
  <path d="M128 100C139 106 146 116 146 130V151" stroke="#F7F4EA" stroke-width="7.5" stroke-linecap="round"/>
  <path d="M110 134C96 134 88 127 80 114L73 103" stroke="#F7F4EA" stroke-width="7.5" stroke-linecap="round"/>
  <path d="M146 134C160 134 168 127 176 114L183 103" stroke="#F7F4EA" stroke-width="7.5" stroke-linecap="round"/>
  <path d="M128 118C115 129 101 145 78 145H61" stroke="#F7F4EA" stroke-width="7.5" stroke-linecap="round"/>
  <path d="M128 118C141 129 155 145 178 145H195" stroke="#F7F4EA" stroke-width="7.5" stroke-linecap="round"/>
  <path d="M99 120V90" stroke="#F7F4EA" stroke-width="7.5" stroke-linecap="round"/>
  <path d="M157 120V90" stroke="#F7F4EA" stroke-width="7.5" stroke-linecap="round"/>
  <path d="M82 114H68" stroke="#F7F4EA" stroke-width="7.5" stroke-linecap="round"/>
  <path d="M174 114H188" stroke="#F7F4EA" stroke-width="7.5" stroke-linecap="round"/>
  <circle cx="128" cy="64" r="13" fill="#10362C" stroke="#F7F4EA" stroke-width="7"/>
  <circle cx="99" cy="84" r="11" fill="#10362C" stroke="#F7F4EA" stroke-width="6.5"/>
  <circle cx="157" cy="84" r="11" fill="#10362C" stroke="#F7F4EA" stroke-width="6.5"/>
  <circle cx="72" cy="101" r="10" fill="#10362C" stroke="#F7F4EA" stroke-width="6"/>
  <circle cx="184" cy="101" r="10" fill="#10362C" stroke="#F7F4EA" stroke-width="6"/>
  <circle cx="58" cy="145" r="12" fill="#10362C" stroke="#F7F4EA" stroke-width="6.5"/>
  <circle cx="198" cy="145" r="12" fill="#10362C" stroke="#F7F4EA" stroke-width="6.5"/>
  <text x="128" y="182" fill="#F7F4EA" font-family="Georgia, 'Times New Roman', serif" font-size="66" font-weight="700" text-anchor="middle">G</text>
  <path d="M88 190H168" stroke="#F7F4EA" stroke-width="6.5" stroke-linecap="round"/>
</svg>
