<svg xmlns="http://www.w3.org/2000/svg" width="64" height="64" viewBox="0 0 64 64" fill="none">
  <title>Brain</title>
  <desc>Grimoire glyph: Brain</desc>
  <path d="M27 16c-6-1-11 4-9 10-5 1-8 6-6 11 1 5 5 8 10 7 2 6 12 7 14 1 6 3 14-1 14-8 5-3 4-12-2-14 0-7-8-11-14-7-2-4-5-5-7 0z" stroke="#0B1F2A" fill="none" stroke-linejoin="round" stroke-width="2.2" />
  <path d="M28 18v28M36 18v28M20 29h10M34 29h13M19 38h13M36 38h10" stroke="#0B1F2A" fill="none" stroke-linecap="round" stroke-width="1.6" />
</svg>
