<svg xmlns="http://www.w3.org/2000/svg" width="64" height="64" viewBox="0 0 64 64" fill="none">
  <title>Fingerprint</title>
  <desc>Grimoire glyph: Fingerprint</desc>
  <path d="M21 32c0-8 5-14 11-14s11 6 11 14" stroke="#0B1F2A" fill="none" stroke-linecap="round" stroke-width="1.8" />
  <path d="M26 47c-3-5-4-10-3-15 1-6 4-9 9-9s8 4 8 9c0 8-2 10-2 16" stroke="#0B1F2A" fill="none" stroke-linecap="round" stroke-width="1.8" />
  <path d="M31 48c-2-5-2-8-1-13 1-3 1-5 2-5s2 2 2 5c0 6 0 9 2 13" stroke="#0B1F2A" fill="none" stroke-linecap="round" stroke-width="1.8" />
</svg>
