<svg width="256" height="256" viewBox="0 0 256 256" fill="none" xmlns="http://www.w3.org/2000/svg" role="img" aria-labelledby="grimoire-icon-title">
  <title id="grimoire-icon-title">Grimoire</title>
  <defs>
    <linearGradient id="grimoire-icon-bg" x1="42" y1="24" x2="220" y2="232" gradientUnits="userSpaceOnUse">
      <stop offset="0" stop-color="#17463E"/>
      <stop offset="0.56" stop-color="#0E302B"/>
      <stop offset="1" stop-color="#081B18"/>
    </linearGradient>
    <linearGradient id="grimoire-page-left" x1="63" y1="70" x2="131" y2="190" gradientUnits="userSpaceOnUse">
      <stop stop-color="#FFF8DF"/>
      <stop offset="1" stop-color="#E8D9AA"/>
    </linearGradient>
    <linearGradient id="grimoire-page-right" x1="193" y1="70" x2="125" y2="190" gradientUnits="userSpaceOnUse">
      <stop stop-color="#FFF8DF"/>
      <stop offset="1" stop-color="#E8D9AA"/>
    </linearGradient>
    <radialGradient id="grimoire-icon-light" cx="0" cy="0" r="1" gradientUnits="userSpaceOnUse" gradientTransform="translate(77 52) rotate(47) scale(134 110)">
      <stop stop-color="#FFFFFF" stop-opacity="0.24"/>
      <stop offset="0.62" stop-color="#FFFFFF" stop-opacity="0.05"/>
      <stop offset="1" stop-color="#FFFFFF" stop-opacity="0"/>
    </radialGradient>
    <filter id="grimoire-soft-shadow" x="-18%" y="-18%" width="136%" height="140%" color-interpolation-filters="sRGB">
      <feDropShadow dx="0" dy="8" stdDeviation="8" flood-color="#020B09" flood-opacity="0.32"/>
    </filter>
  </defs>

  <rect x="14" y="14" width="228" height="228" rx="54" fill="url(#grimoire-icon-bg)"/>
  <rect x="14" y="14" width="228" height="228" rx="54" fill="url(#grimoire-icon-light)"/>
  <path d="M51 33C34 44 26 61 26 84V171C26 207 49 230 85 230H173C205 230 226 213 232 183" stroke="#FFFFFF" stroke-opacity="0.1" stroke-width="2.5"/>

  <g filter="url(#grimoire-soft-shadow)">
    <path d="M64 78C84 65 105 64 128 78V188C105 171 86 170 64 185V78Z" fill="url(#grimoire-page-left)"/>
    <path d="M192 78C172 65 151 64 128 78V188C151 171 170 170 192 185V78Z" fill="url(#grimoire-page-right)"/>
    <path d="M128 78V188" stroke="#7B6235" stroke-opacity="0.48" stroke-width="3" stroke-linecap="round"/>
    <path d="M78 95C94 89 108 90 120 97" stroke="#7B6235" stroke-opacity="0.42" stroke-width="3" stroke-linecap="round"/>
    <path d="M78 119C94 113 108 114 120 121" stroke="#7B6235" stroke-opacity="0.34" stroke-width="3" stroke-linecap="round"/>
    <path d="M78 143C95 137 108 138 120 145" stroke="#7B6235" stroke-opacity="0.28" stroke-width="3" stroke-linecap="round"/>

    <path d="M141 99L166 86L181 111L158 134L142 122" stroke="#0E302B" stroke-width="5" stroke-linecap="round" stroke-linejoin="round"/>
    <circle cx="141" cy="99" r="8" fill="#0E302B" stroke="#F6E5A9" stroke-width="4"/>
    <circle cx="166" cy="86" r="7" fill="#CDAA55" stroke="#FFF4CC" stroke-width="3.5"/>
    <circle cx="181" cy="111" r="7" fill="#CDAA55" stroke="#FFF4CC" stroke-width="3.5"/>
    <circle cx="158" cy="134" r="8" fill="#0E302B" stroke="#F6E5A9" stroke-width="4"/>
  </g>
</svg>
