<svg xmlns="http://www.w3.org/2000/svg" viewBox="0 0 320 220" role="img" aria-label="Playful line art note crew">
  <defs>
    <style>
      .ink{stroke:#0c0c0d;stroke-width:5;stroke-linecap:round;stroke-linejoin:round;fill:none}
      .thin{stroke:#0c0c0d;stroke-width:3;stroke-linecap:round;stroke-linejoin:round;fill:none}
      .fill{fill:#0c0c0d}
      .paper{fill:#fbfaf6;stroke:#0c0c0d;stroke-width:4;stroke-linecap:round;stroke-linejoin:round}
      .soft{fill:#9c9c9c;opacity:.42}
      .skin{fill:#fbfaf6;stroke:#0c0c0d;stroke-width:4;stroke-linecap:round;stroke-linejoin:round}
    </style>
  </defs>
  <rect width="320" height="220" fill="none"/>
  <path class="thin" d="M33 194c46 9 92 12 139 8 39-3 75-10 116-6"/>
  <g transform="translate(16 10)">
    <path class="paper" d="M221 20h46c5 0 8 3 8 8v31c0 5-3 8-8 8h-46z"/>
    <path class="thin" d="M236 50c10-17 17-23 25-20M261 30v13h-13"/>
    <path class="paper" d="M171 45h42c5 0 8 3 8 8v35c0 5-3 8-8 8h-42z"/>
    <path class="soft" d="M181 78c6-16 13-22 21-13 5 6 8 8 13-3v24h-34z"/>
    <circle class="soft" cx="206" cy="58" r="4"/>
    <path class="thin" d="M96 42c-10-8-24-8-33 0M73 64c14 7 25 5 33-5"/>
    <path class="thin" d="M282 113c11 10 16 21 16 35"/>
    <path class="thin" d="M295 147c-4-2-8-6-11-12"/>
    <g>
      <path class="fill" d="M64 75c-21-2-35 11-35 31 0 13 8 22 22 24 13 2 29-2 38-10 13-12 10-40-25-45z"/>
      <path class="skin" d="M54 91c14-2 27 7 29 22 2 16-7 30-22 33-15 2-28-8-30-24-2-15 8-28 23-31z"/>
      <path class="fill" d="M34 103c14-1 23-8 25-21 16 13 31 17 47 11-3-20-23-34-47-31-25 3-39 19-35 39z"/>
      <path class="thin" d="M55 116c3 3 7 3 10 0M77 111c3 3 7 3 10 0M70 123c0 6-3 9-8 10"/>
      <path class="fill" d="M46 147c18-8 37-6 52 6l-2 48H31z"/>
      <path class="paper" d="M73 143l36 14-13 35-36-14z"/>
      <path class="thin" d="M81 157l17 7M78 168l16 6"/>
      <path class="ink" d="M44 160c-18 7-29 18-33 34M100 156c14 7 23 19 27 36"/>
      <path class="fill" d="M37 199h18l-5-28zM87 199h20l-9-31z"/>
    </g>
    <g transform="translate(126 48)">
      <path class="thin" d="M13 105c-9-27 2-53 25-61 26-10 55 7 60 34"/>
      <path class="skin" d="M46 27c14-2 26 6 28 20s-6 27-20 29-26-7-28-21c-2-13 6-26 20-28z"/>
      <path class="fill" d="M27 47c13 0 23-7 28-20 10 10 21 14 35 12-6-19-22-29-43-26-20 3-31 15-30 34z"/>
      <path class="thin" d="M43 53c3 3 7 3 9 0M65 49c3 2 6 2 8-1M56 60c0 5-2 8-6 9"/>
      <path class="fill" d="M24 116c7-26 20-39 39-39 17 0 30 12 38 39l-6 49H34z"/>
      <path class="paper" d="M16 82h91l12 45H29z"/>
      <path class="fill" d="M56 99h13l4 17H60zM78 99h13l4 17H82z"/>
      <path class="ink" d="M24 95c-18 1-28 9-30 25M116 94c20 1 31 10 34 25"/>
      <path class="fill" d="M39 166h22l-3-36H36zM82 166h22l-8-36H77z"/>
    </g>
    <path class="thin" d="M246 103c11-28 34-39 50-25"/>
    <path class="paper" d="M257 80c12-6 25-3 31 9-12 5-23 2-31-9z"/>
    <path class="thin" d="M237 128c11 6 24 5 35-3M242 143c9 5 18 4 27-2"/>
  </g>
</svg>
