<svg xmlns="http://www.w3.org/2000/svg" viewBox="0 0 320 220" role="img" aria-label="Open book, candle, ink, and leaves">
  <defs>
    <radialGradient id="dark-glow" cx="48%" cy="42%" r="65%">
      <stop offset="0" stop-color="#f2d27b" stop-opacity=".22"/>
      <stop offset=".45" stop-color="#3d8a70" stop-opacity=".10"/>
      <stop offset="1" stop-color="#092a23" stop-opacity="0"/>
    </radialGradient>
    <linearGradient id="dark-page" x1="0" x2="1" y1="0" y2="1">
      <stop offset="0" stop-color="#f7e7bf"/>
      <stop offset=".72" stop-color="#b9c49d"/>
      <stop offset="1" stop-color="#6f8a71"/>
    </linearGradient>
    <linearGradient id="dark-gold" x1="0" x2="1" y1="0" y2="1">
      <stop offset="0" stop-color="#ffe9a8"/>
      <stop offset="1" stop-color="#c38b34"/>
    </linearGradient>
    <filter id="dark-soft" color-interpolation-filters="sRGB" x="-20%" y="-20%" width="140%" height="140%">
      <feDropShadow dx="0" dy="8" stdDeviation="9" flood-color="#031612" flood-opacity=".45"/>
    </filter>
  </defs>
  <rect width="320" height="220" fill="none"/>
  <ellipse cx="156" cy="194" rx="128" ry="16" fill="#031b17" opacity=".55"/>
  <circle cx="160" cy="105" r="112" fill="url(#dark-glow)"/>
  <g fill="none" stroke="#d8b15b" stroke-linecap="round" stroke-linejoin="round" opacity=".55">
    <path d="M146 27v12M140 33h12M253 51v10M248 56h10M205 32v8M201 36h8"/>
    <circle cx="231" cy="80" r="2.4"/>
    <circle cx="116" cy="53" r="1.8"/>
  </g>
  <g stroke="#86a978" stroke-linecap="round" stroke-linejoin="round" fill="none" opacity=".7">
    <path d="M255 169c21-20 29-45 24-72"/>
    <path d="M259 151c10-8 20-8 28-1M266 132c8-12 18-16 30-13M268 112c5-13 15-20 28-22"/>
    <path d="M61 169c-20-22-25-49-15-76"/>
    <path d="M58 150c-9-9-19-10-28-4M54 130c-6-12-16-18-28-16M55 111c-3-13-12-21-25-25"/>
  </g>
  <g filter="url(#dark-soft)">
    <path d="M86 134c28-11 50-6 72 11 22-17 45-22 73-11v50c-29-9-51-6-73 11-22-17-44-20-72-11z" fill="#1b473d" opacity=".88"/>
    <path d="M93 125c26-9 47-5 65 11v52c-18-15-40-20-65-12z" fill="url(#dark-page)"/>
    <path d="M158 136c19-16 40-20 66-11v51c-25-8-47-3-66 12z" fill="url(#dark-page)"/>
    <path d="M158 136v52" stroke="#35594b" stroke-width="2"/>
    <path d="M105 143c15-4 29-2 42 5M105 156c15-3 29-1 42 5M169 148c13-7 27-9 42-5M169 161c13-6 27-8 42-4" stroke="#496756" stroke-width="2" opacity=".52"/>
  </g>
  <g filter="url(#dark-soft)">
    <path d="M50 105h38v9H50z" fill="#6f552d"/>
    <path d="M58 54h21v51H58z" fill="#f7dfa0"/>
    <path d="M57 54c5-6 17-6 23 0" fill="#fff1c2"/>
    <path d="M69 23c11 18 7 26 0 33-8-8-9-18 0-33z" fill="url(#dark-gold)"/>
    <path d="M70 31c4 10 2 15-2 21" stroke="#fff6cc" stroke-width="2" opacity=".9"/>
    <path d="M62 114h14l-3 35H65z" fill="#a38147"/>
    <ellipse cx="69" cy="151" rx="20" ry="6" fill="#5d4625"/>
  </g>
  <g filter="url(#dark-soft)">
    <ellipse cx="245" cy="151" rx="23" ry="25" fill="#163f35"/>
    <ellipse cx="245" cy="151" rx="16" ry="18" fill="#285d4f"/>
    <path d="M231 151h28M245 132v38" stroke="#8eaa81" opacity=".45"/>
    <path d="M204 177c31-35 49-67 68-107" stroke="#e8d49a" stroke-width="5" stroke-linecap="round"/>
    <path d="M209 172c28-32 45-62 62-100" stroke="#274f42" stroke-width="2" stroke-linecap="round"/>
    <path d="M268 73c-16 9-31 13-47 9 13-12 29-18 47-9z" fill="#b9cf9e"/>
  </g>
  <g fill="url(#dark-gold)" opacity=".9">
    <circle cx="111" cy="81" r="2.4"/>
    <circle cx="188" cy="69" r="1.8"/>
    <circle cx="219" cy="110" r="2.1"/>
  </g>
</svg>
