<svg width="900" height="300" viewBox="0 0 900 300" fill="none" xmlns="http://www.w3.org/2000/svg" role="img" aria-labelledby="grimoire-logo-title grimoire-logo-desc">
  <title id="grimoire-logo-title">Grimoire</title>
  <desc id="grimoire-logo-desc">Grimoire wordmark with an open codex and connected graph mark.</desc>
  <defs>
    <linearGradient id="grimoire-logo-bg" x1="56" y1="36" x2="232" y2="240" gradientUnits="userSpaceOnUse">
      <stop offset="0" stop-color="#17463E"/>
      <stop offset="0.56" stop-color="#0E302B"/>
      <stop offset="1" stop-color="#081B18"/>
    </linearGradient>
    <linearGradient id="grimoire-logo-left-page" x1="76" y1="82" x2="145" y2="202" gradientUnits="userSpaceOnUse">
      <stop stop-color="#FFF8DF"/>
      <stop offset="1" stop-color="#E8D9AA"/>
    </linearGradient>
    <linearGradient id="grimoire-logo-right-page" x1="205" y1="82" x2="136" y2="202" gradientUnits="userSpaceOnUse">
      <stop stop-color="#FFF8DF"/>
      <stop offset="1" stop-color="#E8D9AA"/>
    </linearGradient>
    <radialGradient id="grimoire-logo-light" cx="0" cy="0" r="1" gradientUnits="userSpaceOnUse" gradientTransform="translate(89 60) rotate(47) scale(134 110)">
      <stop stop-color="#FFFFFF" stop-opacity="0.23"/>
      <stop offset="0.62" stop-color="#FFFFFF" stop-opacity="0.05"/>
      <stop offset="1" stop-color="#FFFFFF" stop-opacity="0"/>
    </radialGradient>
    <filter id="grimoire-logo-shadow" x="-18%" y="-18%" width="136%" height="140%" color-interpolation-filters="sRGB">
      <feDropShadow dx="0" dy="8" stdDeviation="8" flood-color="#020B09" flood-opacity="0.22"/>
    </filter>
  </defs>

  <g filter="url(#grimoire-logo-shadow)">
    <rect x="38" y="34" width="216" height="216" rx="50" fill="url(#grimoire-logo-bg)"/>
    <rect x="38" y="34" width="216" height="216" rx="50" fill="url(#grimoire-logo-light)"/>
    <path d="M86 94C105 82 125 81 146 94V198C125 182 106 181 86 196V94Z" fill="url(#grimoire-logo-left-page)"/>
    <path d="M206 94C187 82 167 81 146 94V198C167 182 186 181 206 196V94Z" fill="url(#grimoire-logo-right-page)"/>
    <path d="M146 94V198" stroke="#7B6235" stroke-opacity="0.48" stroke-width="3" stroke-linecap="round"/>
    <path d="M99 111C114 105 128 106 139 113" stroke="#7B6235" stroke-opacity="0.42" stroke-width="3" stroke-linecap="round"/>
    <path d="M99 134C114 128 128 129 139 136" stroke="#7B6235" stroke-opacity="0.34" stroke-width="3" stroke-linecap="round"/>
    <path d="M99 157C115 151 128 152 139 159" stroke="#7B6235" stroke-opacity="0.28" stroke-width="3" stroke-linecap="round"/>
    <path d="M158 113L182 100L196 124L175 146L159 135" stroke="#0E302B" stroke-width="5" stroke-linecap="round" stroke-linejoin="round"/>
    <circle cx="158" cy="113" r="8" fill="#0E302B" stroke="#F6E5A9" stroke-width="4"/>
    <circle cx="182" cy="100" r="7" fill="#CDAA55" stroke="#FFF4CC" stroke-width="3.5"/>
    <circle cx="196" cy="124" r="7" fill="#CDAA55" stroke="#FFF4CC" stroke-width="3.5"/>
    <circle cx="175" cy="146" r="8" fill="#0E302B" stroke="#F6E5A9" stroke-width="4"/>
  </g>

  <text x="300" y="136" fill="#102D25" font-family="Inter, ui-sans-serif, system-ui, -apple-system, BlinkMacSystemFont, 'Segoe UI', sans-serif" font-size="78" font-weight="760">Grimoire</text>
  <text x="303" y="178" fill="#5B665F" font-family="Inter, ui-sans-serif, system-ui, -apple-system, BlinkMacSystemFont, 'Segoe UI', sans-serif" font-size="24" font-weight="560">Local-first markdown workspace</text>
  <path d="M303 205H595" stroke="#CDAA55" stroke-width="4" stroke-linecap="round"/>
</svg>
